<svg xmlns="http://www.w3.org/2000/svg" xmlns:xlink="http://www.w3.org/1999/xlink" width="2000" zoomAndPan="magnify" viewBox="0 0 1500 1499.999933" height="2000" preserveAspectRatio="xMidYMid meet" version="1.0"><defs><clipPath id="67f9af0ac3"><path d="M 248.976562 273.105469 L 451.476562 273.105469 L 451.476562 483.855469 L 248.976562 483.855469 Z M 248.976562 273.105469 " clip-rule="nonzero"/></clipPath><clipPath id="c65b9d1bf9"><path d="M 1037.300781 273.105469 L 1251.050781 273.105469 L 1251.050781 495.855469 L 1037.300781 495.855469 Z M 1037.300781 273.105469 " clip-rule="nonzero"/></clipPath><clipPath id="7b5b58181c"><path d="M 0.300781 0.105469 L 214.015625 0.105469 L 214.015625 222.726562 L 0.300781 222.726562 Z M 0.300781 0.105469 " clip-rule="nonzero"/></clipPath><clipPath id="b65ec3c387"><rect x="0" width="215" y="0" height="223"/></clipPath><clipPath id="494ef9da12"><path d="M 780 684 L 889.835938 684 L 889.835938 1131 L 780 1131 Z M 780 684 " clip-rule="nonzero"/></clipPath><clipPath id="4d059ab7c6"><path d="M 610.085938 821 L 776 821 L 776 1198 L 610.085938 1198 Z M 610.085938 821 " clip-rule="nonzero"/></clipPath></defs><rect x="-150" width="1800" fill="#ffffff" y="-149.999993" height="1799.99992" fill-opacity="1"/><rect x="-150" width="1800" fill="#ff3266" y="-149.999993" height="1799.99992" fill-opacity="1"/><g clip-path="url(#67f9af0ac3)"><path fill="#000000" d="M 266.84375 326.101562 C 298.054688 273.136719 364.375 256.257812 408.214844 292.101562 C 465.023438 338.546875 457.238281 389.496094 432.5 437.800781 C 406.097656 489.347656 347.171875 493.367188 295.367188 470.386719 C 239.835938 445.757812 239.292969 372.867188 266.84375 326.101562 Z M 266.84375 326.101562 " fill-opacity="1" fill-rule="nonzero"/></g><g clip-path="url(#c65b9d1bf9)"><g transform="matrix(1, 0, 0, 1, 1037, 273)"><g clip-path="url(#b65ec3c387)"><g clip-path="url(#7b5b58181c)"><path fill="#000000" d="M 195.140625 166.734375 C 162.167969 222.6875 92.101562 240.523438 45.785156 202.65625 C -14.234375 153.585938 -6.007812 99.757812 20.128906 48.726562 C 48.023438 -5.734375 110.277344 -9.976562 165.003906 14.296875 C 223.675781 40.320312 224.25 117.328125 195.140625 166.734375 Z M 195.140625 166.734375 " fill-opacity="1" fill-rule="nonzero"/></g></g></g></g><g clip-path="url(#494ef9da12)"><path fill="#000000" d="M 889.636719 1118.507812 C 889.636719 1124.96875 884.5 1130.304688 878 1130.5 C 871.371094 1130.703125 865.835938 1125.496094 865.632812 1118.867188 C 863.945312 1063.589844 857.71875 1011.050781 846.957031 961.246094 L 846.945312 961.195312 C 832.167969 891.324219 823.324219 851.039062 820.40625 840.339844 L 781.164062 700.09375 C 780.863281 699.011719 780.71875 697.921875 780.71875 696.851562 C 780.71875 691.601562 784.1875 686.78125 789.492188 685.296875 C 795.878906 683.511719 802.503906 687.238281 804.289062 693.625 L 843.554688 833.949219 L 843.574219 834.027344 C 846.613281 845.167969 855.5625 885.886719 870.425781 956.175781 C 881.5 1007.410156 887.902344 1061.398438 889.632812 1118.136719 C 889.636719 1118.261719 889.636719 1118.386719 889.636719 1118.507812 Z M 889.636719 1118.507812 " fill-opacity="1" fill-rule="nonzero"/></g><g clip-path="url(#4d059ab7c6)"><path fill="#000000" d="M 775.132812 1185.554688 C 775.132812 1191.785156 770.320312 1197.050781 764.007812 1197.515625 C 757.394531 1198.003906 751.640625 1193.039062 751.152344 1186.425781 C 750.347656 1175.542969 746.707031 1159.882812 740.230469 1139.445312 L 740.230469 1139.449219 C 714.40625 1062.4375 699.921875 1020.753906 696.769531 1014.398438 L 696.769531 1014.417969 C 696.253906 1013.597656 695.835938 1012.71875 695.527344 1011.792969 C 689.019531 992.171875 660.960938 934.734375 611.355469 839.472656 C 610.433594 837.703125 609.996094 835.804688 609.996094 833.9375 C 609.996094 829.605469 612.351562 825.421875 616.460938 823.28125 C 622.339844 820.21875 629.589844 822.503906 632.652344 828.386719 C 681.804688 922.773438 710.207031 980.9375 717.859375 1002.882812 L 717.859375 1002.90625 C 717.917969 1003.011719 717.972656 1003.117188 718.027344 1003.226562 C 721.558594 1010.074219 736.570312 1053 763.0625 1132.003906 L 763.121094 1132.191406 C 770.164062 1154.417969 774.15625 1171.90625 775.097656 1184.660156 C 775.121094 1184.960938 775.132812 1185.261719 775.132812 1185.554688 Z M 775.132812 1185.554688 " fill-opacity="1" fill-rule="nonzero"/></g></svg>