<svg xmlns="http://www.w3.org/2000/svg" xmlns:xlink="http://www.w3.org/1999/xlink" width="2000" zoomAndPan="magnify" viewBox="0 0 1500 1499.999933" height="2000" preserveAspectRatio="xMidYMid meet" version="1.0"><defs><clipPath id="60b2d96772"><path d="M 150 150 L 675 150 L 675 696.75 L 150 696.75 Z M 150 150 " clip-rule="nonzero"/></clipPath><clipPath id="d2d626ea6e"><path d="M 824.863281 150 L 1349.863281 150 L 1349.863281 696.75 L 824.863281 696.75 Z M 824.863281 150 " clip-rule="nonzero"/></clipPath><clipPath id="9bb0ad7888"><path d="M 0.992188 0 L 525.863281 0 L 525.863281 546.75 L 0.992188 546.75 Z M 0.992188 0 " clip-rule="nonzero"/></clipPath><clipPath id="ed96798535"><rect x="0" width="526" y="0" height="547"/></clipPath><clipPath id="198dce3269"><path d="M 445 854 L 1192 854 L 1192 1343 L 445 1343 Z M 445 854 " clip-rule="nonzero"/></clipPath><clipPath id="f950414240"><path d="M 1250.203125 1002.148438 L 974.914062 1556.28125 L 360.996094 1251.292969 L 636.289062 697.15625 Z M 1250.203125 1002.148438 " clip-rule="nonzero"/></clipPath><clipPath id="f2476336ea"><path d="M 1250.203125 1002.148438 L 974.914062 1556.28125 L 360.996094 1251.292969 L 636.289062 697.15625 Z M 1250.203125 1002.148438 " clip-rule="nonzero"/></clipPath><clipPath id="424ede3c21"><path d="M 1250.203125 1002.148438 L 974.914062 1556.28125 L 360.996094 1251.292969 L 636.289062 697.15625 Z M 1250.203125 1002.148438 " clip-rule="nonzero"/></clipPath></defs><rect x="-150" width="1800" fill="#ffffff" y="-149.999993" height="1799.99992" fill-opacity="1"/><rect x="-150" width="1800" fill="#CC2255" y="-149.999993" height="1799.99992" fill-opacity="1"/><g clip-path="url(#60b2d96772)"><path fill="#000000" d="M 196.382812 287.582031 C 277.398438 150.089844 449.566406 106.265625 563.371094 199.3125 C 710.84375 319.890625 690.636719 452.144531 626.410156 577.542969 C 557.875 711.355469 404.90625 721.785156 270.429688 662.136719 C 126.269531 598.195312 124.855469 408.972656 196.382812 287.582031 Z M 196.382812 287.582031 " fill-opacity="1" fill-rule="nonzero"/></g><g clip-path="url(#d2d626ea6e)"><g transform="matrix(1, 0, 0, 1, 824, 150)"><g clip-path="url(#ed96798535)"><g clip-path="url(#9bb0ad7888)"><path fill="#000000" d="M 479.609375 137.582031 C 398.597656 0.0898438 226.425781 -43.734375 112.621094 49.3125 C -34.851562 169.890625 -14.640625 302.144531 49.585938 427.542969 C 118.117188 561.355469 271.085938 571.785156 405.5625 512.136719 C 549.726562 448.195312 551.136719 258.972656 479.609375 137.582031 Z M 479.609375 137.582031 " fill-opacity="1" fill-rule="nonzero"/></g></g></g></g><g clip-path="url(#198dce3269)"><g clip-path="url(#f950414240)"><g clip-path="url(#f2476336ea)"><g clip-path="url(#424ede3c21)"><path fill="#000000" d="M 454.566406 1297.132812 C 441.835938 1266.949219 444.054688 1236.929688 452.394531 1205.539062 C 472.15625 1130.292969 489.21875 1054.222656 508.773438 978.871094 C 515.464844 953.925781 523.921875 929.597656 534.042969 906.097656 C 543.234375 884.46875 561.171875 875.484375 578.617188 880.003906 C 596.691406 884.832031 608.980469 902.867188 603.839844 926.765625 C 595.417969 966.152344 583.253906 1004.71875 573.167969 1043.796875 C 557.730469 1103.039062 543.953125 1162.589844 527.058594 1221.109375 C 517.375 1255.199219 497.613281 1284.027344 465.894531 1302.5 Z M 1191.148438 1121.023438 C 1188.695312 1091.015625 1179.394531 1063.3125 1158.070312 1042.085938 C 1102.933594 987.203125 1046.867188 933.15625 989.972656 879.734375 C 978.84375 869.277344 965.433594 861.320312 950.996094 856.480469 C 941.441406 853.289062 925.144531 854.789062 919.453125 861.039062 C 912.929688 868.429688 912.960938 883.488281 913.503906 894.914062 C 913.832031 901.558594 919.867188 908.707031 924.757812 914.507812 C 983.867188 982.257812 1043.492188 1049.484375 1116.785156 1102.234375 C 1136.433594 1116.40625 1163.636719 1120.0625 1187.425781 1128.511719 Z M 886.324219 1277.695312 C 878.160156 1198.6875 872.066406 1119.671875 843.148438 1044.355469 C 836.257812 1026.410156 834.242188 1006.476562 828.699219 987.902344 C 823.679688 971.40625 818.871094 954.492188 810.53125 939.457031 C 803.238281 925.976562 789.519531 918.644531 773.132812 924.507812 C 757.679688 930.054688 752.308594 943.46875 753.589844 958.109375 C 756.253906 989.257812 757.878906 1020.929688 764.898438 1051.128906 C 779.253906 1111.425781 796.617188 1170.882812 813.148438 1230.449219 C 819.632812 1253.902344 826.328125 1277.457031 833.75 1300.59375 C 839.601562 1318.542969 848.253906 1335.03125 868.71875 1342.863281 C 885.390625 1323.394531 888.765625 1300.953125 886.324219 1277.695312 Z M 886.324219 1277.695312 " fill-opacity="1" fill-rule="nonzero"/></g></g></g></g></svg>